HIERARCHY
ROOT root     
{
	OFFSET 0.0000 0.0000 0.0000
	CHANNELS 6 Xposition Yposition Zposition Zrotation Yrotation Xrotation
	JOINT pelvis   
	{
		OFFSET 0.0000 0.0000 0.0000
		CHANNELS 3 Zrotation Yrotation Xrotation
		JOINT thorax   
		{
			OFFSET 0.0000 23.0750 -5.0000
			CHANNELS 3 Zrotation Yrotation Xrotation
			JOINT rclavicle
			{
				OFFSET 0.0000 28.0009 0.0000
				CHANNELS 3 Zrotation Yrotation Xrotation
				JOINT rhumerus 
				{
					OFFSET -18.5725 5.5939 0.0000
					CHANNELS 3 Zrotation Yrotation Xrotation
					JOINT rradius  
					{
						OFFSET -24.8459 0.0000 0.0000
						CHANNELS 3 Zrotation Yrotation Xrotation
						JOINT rhand    
						{
							OFFSET -24.5477 0.0000 0.0000
							CHANNELS 3 Zrotation Yrotation Xrotation
							End Site
							{
								OFFSET -8.1826 0.0000 0.0000
							}
						}
					}
				}
			}
			JOINT lclavicle
			{
				OFFSET 0.0000 28.0009 0.0000
				CHANNELS 3 Zrotation Yrotation Xrotation
				JOINT lhumerus 
				{
					OFFSET 18.5725 5.5939 0.0000
					CHANNELS 3 Zrotation Yrotation Xrotation
					JOINT lradius  
					{
						OFFSET 24.8459 0.0000 0.0000
						CHANNELS 3 Zrotation Yrotation Xrotation
						JOINT lhand    
						{
							OFFSET 24.5477 0.0000 0.0000
							CHANNELS 3 Zrotation Yrotation Xrotation
							End Site
							{
								OFFSET 8.1826 0.0000 0.0000
							}
						}
					}
				}
			}
			JOINT head     
			{
				OFFSET 0.0000 35.2030 0.0000
				CHANNELS 3 Zrotation Yrotation Xrotation
				End Site
				{
					OFFSET 0.0000 11.7343 0.0000
				}
			}
		}
		JOINT rfemur   
		{
			OFFSET -8.2817 0.0000 0.0000
			CHANNELS 3 Zrotation Yrotation Xrotation
			JOINT rtibia   
			{
				OFFSET 0.0000 -43.3627 0.0000
				CHANNELS 3 Zrotation Yrotation Xrotation
				JOINT rfoot    
				{
					OFFSET 0.0000 -38.2947 0.0000
					CHANNELS 3 Zrotation Yrotation Xrotation
					JOINT rtoes    
					{
						OFFSET 0.0000 0.0000 16.6054
						CHANNELS 3 Zrotation Yrotation Xrotation
						End Site
						{
							OFFSET 0.0000 0.0000 5.5351
						}
					}
				}
			}
		}
		JOINT lfemur   
		{
			OFFSET 8.2817 0.0000 0.0000
			CHANNELS 3 Zrotation Yrotation Xrotation
			JOINT ltibia   
			{
				OFFSET 0.0000 -43.3627 0.0000
				CHANNELS 3 Zrotation Yrotation Xrotation
				JOINT lfoot    
				{
					OFFSET 0.0000 -38.2947 0.0000
					CHANNELS 3 Zrotation Yrotation Xrotation
					JOINT ltoes    
					{
						OFFSET 0.0000 0.0000 16.6054
						CHANNELS 3 Zrotation Yrotation Xrotation
						End Site
						{
							OFFSET 0.0000 0.0000 5.5351
						}
					}
				}
			}
		}
	}
}
MOTION
Frames: 21
Frame Time: .0333333
-68.523 71.895 -2.342 -65.8098 84.7752 -38.8309 0 -0 0 -5.41952 -11.0177 20.9511 21.9061 -14.1048 -4.2265e-05 55.3332 -16.1407 15.8878 -5.22469e-07 64.2496 -8.32103e-07 -7.23185 5.8046 -0.367111 -6.31139 11.0941 -5.00955e-06 -29.4046 -26.9425 -11.7727 2.63609e-06 -84.5806 -2.89782e-06 -8.87361 1.1537 -0.0895014 11.9656 3.33055 -13.7049 17.4869 -5.58161 -79.4247 -0 -0 57.2147 -5.02565e-05 -15.1873 -8.88559 2.4011 -9.13363e-06 -15.2305 -4.67531 22.2351 -47.3987 -0 -0 79.3173 2.65143e-05 8.54291 -22.4688 -3.28572 -2.37296e-05 -60.0205 
-67.176 72.004 -2.3222 -66.2819 84.8988 -39.4154 0 -0 0 -4.76489 -11.4021 20.9057 21.5587 -14.6139 -5.01395e-06 55.2222 -17.2441 15.6642 -8.55995e-07 65.1497 -5.469e-07 -6.64521 5.79987 -0.337007 -6.06474 11.3979 6.23679e-06 -28.8164 -26.9742 -12.061 0 -85.5764 0 -8.99377 1.0532 -0.0827994 11.9059 3.58125 -13.7107 17.9575 -5.62108 -79.3294 -0 -0 53.9333 2.41726e-05 -14.9618 -8.10727 2.15815 2.90146e-06 -17.3101 -4.2165 22.176 -45.651 -0 -0 78.3356 4.31719e-05 8.40766 -22.5168 -3.23953 5.78367e-05 -60.7458 
-65.791 72.098 -2.3017 -66.9979 85.0465 -40.265 0 -0 0 -4.09169 -11.8168 20.8459 21.1863 -15.095 -0.000136799 55.1804 -18.3584 15.3595 -8.82654e-07 66.0821 -5.74102e-07 -6.02416 5.76486 -0.3036 -5.81862 11.7296 3.29542e-05 -28.352 -26.9212 -12.2388 -4.12227e-06 -86.5766 3.8835e-06 -9.13937 0.965102 -0.0770985 11.8264 3.82333 -13.7113 18.4145 -5.71836 -79.0926 -0 -0 50.7743 3.04971e-05 -14.7085 -7.35552 1.92487 6.64826e-06 -19.7856 -3.74683 22.0696 -43.818 -0 -0 77.2644 4.63236e-06 8.31555 -22.573 -3.21131 -4.80379e-05 -61.4279 
-64.37 72.177 -2.2828 -67.9712 85.2397 -41.391 0 -0 0 -3.41325 -12.2652 20.7639 20.7978 -15.551 -2.57163e-05 55.1959 -19.4867 14.9831 -0 67.0433 -0 -5.40258 5.71679 -0.269898 -5.57141 12.0883 -1.29726e-05 -28.0125 -26.7947 -12.2982 2.4569e-06 -87.5933 -3.04969e-06 -9.31553 0.889604 -0.0724994 11.7331 4.04851 -13.7039 18.8403 -5.88218 -78.7426 -0 -0 47.7871 -2.36493e-05 -14.4297 -6.62256 1.69981 -3.47602e-06 -22.6546 -3.28233 21.9058 -41.9069 -0 -0 76.1043 3.06438e-05 8.27107 -22.6143 -3.19937 9.46389e-05 -62.0831 
-62.911 72.238 -2.268 -69.2333 85.4682 -42.8151 0 -0 0 -2.745 -12.7438 20.6527 20.4102 -15.9821 -0.000137441 55.2556 -20.6337 14.5458 -6.38464e-07 68.034 -9.45953e-07 -4.80648 5.67456 -0.238396 -5.32009 12.4678 -5.58972e-06 -27.7993 -26.6029 -12.2353 0 -88.6174 0 -9.52807 0.826103 -0.0688 11.6335 4.24925 -13.6891 19.2127 -6.11956 -78.3102 -0 -0 45.0349 1.94201e-05 -14.1309 -5.89926 1.48221 6.99123e-06 -25.842 -2.84027 21.6723 -39.9295 -0 -0 74.8574 1.35251e-05 8.27397 -22.6228 -3.2017 -5.61269e-06 -62.7287 
-61.418 72.281 -2.2602 -70.7501 85.7626 -44.5011 0 -0 0 -2.10197 -13.2568 20.4975 20.0269 -16.3956 -6.5089e-05 55.3476 -21.7853 14.0732 -0 69.0376 -0 -4.26852 5.66518 -0.211294 -5.07342 12.8682 8.14617e-06 -27.6891 -26.3518 -12.056 5.16974e-06 -89.6952 -5.77214e-06 -9.77856 0.776603 -0.0663998 11.5292 4.42164 -13.6656 19.5076 -6.43286 -77.8327 -0 -0 42.5822 -4.41044e-06 -13.8122 -5.17418 1.27006 -6.98138e-06 -29.2147 -2.44146 21.3651 -37.8977 -0 -0 73.5255 -6.73775e-05 8.32087 -22.5804 -3.21429 1.34347e-05 -63.3686 
-59.891 72.303 -2.2604 -72.5743 86.1013 -46.5024 0 -0 0 -1.48667 -13.7829 20.3075 19.672 -16.7864 -2.25916e-05 55.4582 -22.9556 13.5413 -1.01676e-06 70.0706 -1.45019e-06 -3.77035 5.68702 -0.187303 -4.81174 13.2847 -7.14984e-06 -27.7163 -26.0597 -11.7552 -180 -89.3285 180 -10.0812 0.7272 -0.0641007 11.417 4.55134 -13.6456 19.7015 -6.81112 -77.334 -0 -0 40.4941 1.33291e-05 -13.4898 -4.43583 1.0629 -1.91368e-07 -32.6258 -2.08914 20.9924 -35.8124 -0 -0 72.1106 -2.26582e-05 8.4017 -22.478 -3.23203 -4.19543e-05 -64.0002 
-58.334 72.305 -2.272 -74.6098 86.5032 -48.7087 0 -0 0 -0.914899 -14.3257 20.0625 19.3407 -17.1588 -1.86082e-05 55.5729 -24.1156 12.9933 -7.66404e-07 71.101 -1.07242e-06 -3.33793 5.76773 -0.168203 -4.55913 13.7166 2.5818e-05 -27.8316 -25.7118 -11.3482 -180 -88.295 180 -10.4293 0.686203 -0.0626017 11.2964 4.64678 -13.6263 19.774 -7.24673 -76.8687 -0 -0 38.8451 -5.06395e-06 -13.1609 -3.66688 0.856813 9.60277e-08 -35.9538 -1.80943 20.5576 -33.6956 -0 -0 70.6173 1.1861e-05 8.5082 -22.3095 -3.25012 -3.67656e-05 -64.6219 
-56.75 72.286 -2.2956 -76.8355 86.9545 -51.0995 0 -0 0 -0.383846 -14.8688 19.7652 19.0385 -17.5154 -0.000111191 55.6822 -25.2523 12.4356 -0 72.1254 -0 -2.95655 5.90751 -0.152597 -4.31861 14.1638 -1.94863e-05 -28.0293 -25.3118 -10.8462 -180 -87.2286 180 -10.8256 0.646104 -0.0611989 11.1586 4.70582 -13.6154 19.7089 -7.71967 -76.4632 -0 -0 37.6907 9.28471e-06 -12.8365 -2.84944 0.648994 2.01612e-06 -39.109 -1.60425 20.0776 -31.5547 -0 -0 69.0437 -2.56636e-05 8.62702 -22.0742 -3.26325 4.39802e-06 -65.2257 
-55.142 72.248 -2.3316 -79.1714 87.4464 -53.591 0 -0 0 0.109604 -15.3992 19.4179 18.7662 -17.8528 -5.39836e-05 55.7768 -26.3471 11.8744 -0 73.1322 -0 -2.61099 6.1034 -0.1392 -4.09882 14.6216 -1.3266e-06 -28.2944 -24.8532 -10.2665 -180 -86.1622 180 -11.2696 0.602802 -0.0595018 10.9915 4.73303 -13.619 19.4974 -8.20686 -76.1463 -0 -0 37.0769 1.93322e-06 -12.5126 -1.96972 0.437008 -3.42629e-06 -42.023 -1.4737 19.5708 -29.3914 -0 -0 67.3948 6.36888e-05 8.74612 -21.7739 -3.26621 5.88325e-05 -65.808 
-53.512 72.191 -2.3783 -81.3834 87.9281 -55.9417 0 -0 0 0.577205 -15.9058 19.0239 18.5215 -18.1663 -3.71638e-05 55.8477 -27.3791 11.318 -0 74.1094 -0 -2.2799 6.34417 -0.1264 -3.91107 15.0901 -5.83747e-06 -28.6121 -24.3259 -9.6214 -180 -85.0802 180 -11.7552 0.553196 -0.0569 10.7848 4.73652 -13.6446 19.1395 -8.68112 -75.9331 -0 -0 37.0253 4.22499e-07 -12.1885 -1.0167 0.2196 1.80389e-06 -44.6423 -1.40877 19.058 -27.2139 -0 -0 65.6735 -1.48446e-05 8.85318 -21.4137 -3.2548 -3.4845e-05 -66.3699 
-51.863 72.118 -2.434 -82.8529 88.4521 -57.5456 0 -0 0 1.03002 -16.3751 18.5937 18.301 -18.4521 5.46031e-06 55.891 -28.3262 10.7707 -0 75.042 -0 -1.94597 6.61488 -0.112498 -3.76477 15.5661 7.41692e-06 -28.9651 -23.7169 -8.93329 -180 -83.9765 180 -12.2759 0.493703 -0.0531001 10.5279 4.7263 -13.695 18.6469 -9.12305 -75.8286 -0 -0 37.5353 -1.79984e-09 -11.8481 0.00269998 -0.000599999 8.9936e-09 -46.8563 -1.39683 18.5583 -25.0197 -0 -0 63.8808 -4.38834e-06 8.93956 -20.9953 -3.22576 -1.87632e-05 -66.9179 
-50.195 72.028 -2.4949 -82.0969 88.946 -56.9173 0 -0 0 1.48424 -16.7982 18.1408 18.0996 -18.7055 -0.00010869 55.8993 -29.1666 10.2382 -7.63925e-07 75.9318 -9.78987e-07 -1.59215 6.89558 -0.0959032 -3.66877 16.0484 -1.0604e-05 -29.3433 -23.016 -8.21388 180 -82.8491 180 -12.8212 0.422704 -0.0474986 10.2121 4.71415 -13.7775 18.0395 -9.50963 -75.8265 -0 -0 38.579 6.87825e-07 -11.4744 1.0682 -0.216795 2.71093e-06 -48.5365 -1.41717 18.0865 -22.8057 -0 -0 62.0221 -8.80376e-06 8.99923 -20.5149 -3.17677 3.96624e-05 -67.4709 
-48.511 71.925 -2.5549 -73.8332 89.4158 -48.7832 0 -0 0 1.96521 -17.1715 17.6751 17.9135 -18.9182 7.89079e-05 55.8698 -29.8803 9.72133 -1.46167e-06 76.7686 -1.15781e-06 -1.20515 7.16486 -0.0754027 -3.6307 16.5323 -2.947e-05 -29.7369 -22.2135 -7.47886 -180 -81.6979 180 -13.3814 0.339596 -0.0397999 9.83181 4.71201 -13.8941 17.35 -9.82006 -75.9067 -0 -0 40.0922 4.57353e-07 -11.0581 2.14197 -0.418508 2.05222e-06 -49.5175 -1.44066 17.6528 -20.5771 -0 -0 60.1092 7.79016e-05 9.02867 -19.9626 -3.10514 -2.48068e-05 -68.0563 
-46.813 71.811 -2.6068 -38.1283 89.5983 -13.1683 0 -0 0 2.49978 -17.4894 17.2083 17.7416 -19.0865 -1.19975e-05 55.7986 -30.4523 9.22142 -1.23969e-06 77.5464 -1.54334e-06 -0.780004 7.40335 -0.0505007 -3.65499 17.0135 -1.65311e-05 -30.1409 -21.2999 -6.74082 -180 -80.5343 180 -13.9422 0.245602 -0.0300005 9.38474 4.73051 -14.0468 16.6195 -10.0387 -76.0408 -0 -0 41.9932 -1.02846e-05 -10.5925 3.16347 -0.591303 -4.24195e-06 -49.5871 -1.43795 17.2599 -18.3426 -0 -0 58.1578 -3.71988e-06 9.02877 -19.3222 -3.00958 4.14982e-05 -68.7124 
-45.104 71.689 -2.6452 9.60576 89.5813 34.4141 0 -0 0 3.1038 -17.7523 16.754 17.5845 -19.206 2.12355e-05 55.6832 -30.8657 8.73622 -1.15171e-06 78.2741 -9.37152e-07 -0.320099 7.59539 -0.0211999 -3.74111 17.4869 5.67745e-06 -30.5613 -20.2745 -6.00646 -180 -79.3586 180 -14.4911 0.143994 -0.0182995 8.87639 4.7784 -14.2375 15.8944 -10.1615 -76.2057 -0 -0 44.188 9.46666e-07 -10.0738 4.05224 -0.7193 3.92499e-06 -48.5514 -1.38759 16.8949 -16.1109 -0 -0 56.1844 8.41708e-05 9.00661 -18.5655 -2.88903 -7.58711e-06 -69.467 
-43.391 71.563 -2.6617 20.8296 89.2478 45.555 0 -0 0 3.80716 -17.9645 16.3114 17.4454 -19.2752 1.91712e-05 55.5238 -31.1087 8.26436 -1.718e-06 78.9445 -1.41475e-06 0.1669 7.72986 0.0113001 -3.88794 17.9496 -1.96396e-05 -31.0018 -19.14 -5.27876 -180 -78.1819 180 -15.0153 0.0394 -0.00519972 8.31452 4.8602 -14.4658 15.2248 -10.1827 -76.3709 -0 -0 46.567 -6.97653e-06 -9.52231 4.72235 -0.791194 -5.61189e-06 -46.2499 -1.26505 16.543 -13.9141 -0 -0 54.2204 -3.28407e-05 8.96931 -17.6668 -2.74238 9.67726e-06 -70.3485 
-41.682 71.437 -2.6515 18.7983 88.9508 43.4442 0 -0 0 4.62175 -18.1305 15.882 17.3318 -19.2946 0.000121753 55.3215 -31.1738 7.79906 -3.12722e-06 79.5622 -3.28412e-06 0.666291 7.80297 0.0453994 -4.08735 18.3919 2.44304e-05 -31.476 -17.9039 -4.55753 -180 -77.018 180 -15.5056 -0.0619 0.00839973 7.71373 4.97561 -14.7305 14.6543 -10.1106 -76.5173 -0 -0 49.0329 -5.30621e-07 -8.96171 5.08882 -0.801395 -8.89116e-07 -42.6225 -1.06211 16.1729 -11.7826 -0 -0 52.3009 -1.29384e-05 8.92878 -16.5933 -2.56882 -2.54393e-07 -71.3589 
-39.985 71.317 -2.6113 12.3327 88.7051 36.914 0 -0 0 5.55236 -18.2571 15.4623 17.2556 -19.2692 -2.61987e-05 55.075 -31.0602 7.33466 -1.34849e-06 80.1323 -1.13424e-06 1.15943 7.81642 0.0792018 -4.32732 18.8104 -2.0436e-05 -32.0001 -16.577 -3.83816 -180 -75.8829 180 -15.952 -0.153198 0.0214999 7.09341 5.11928 -15.0308 14.2146 -9.95887 -76.631 -0 -0 51.4943 1.07341e-06 -8.42642 5.08926 -0.752884 1.30004e-06 -37.7606 -0.781632 15.7504 -9.75738 -0 -0 50.4669 1.0882e-05 8.8956 -15.3198 -2.36799 1.31242e-05 -72.4771 
-38.312 71.206 -2.5387 4.13325 88.4144 28.7208 0 -0 0 6.59653 -18.355 15.0354 17.2282 -19.2014 -0.000140062 54.7909 -30.7717 6.86427 -1.20422e-06 80.6623 -1.41838e-06 1.62403 7.78119 0.110496 -4.59241 19.1983 -2.83459e-05 -32.5912 -15.1746 -3.11292 -180 -74.7867 180 -16.347 -0.228905 0.0328999 6.47799 5.2864 -15.359 13.9227 -9.74015 -76.7072 -0 -0 53.8631 -2.83003e-06 -7.9639 4.70619 -0.65759 3.64676e-06 -31.9623 -0.435987 15.2382 -7.89644 -0 -0 48.7705 -1.74357e-05 8.87706 -13.8326 -2.13852 -6.80605e-05 -73.648 
-36.664 71.109 -2.4388 -4.14056 88.1418 20.4818 0 -0 0 7.72408 -18.4213 14.6253 17.2635 -19.1142 7.02263e-05 54.4818 -30.3069 6.37149 -0 81.1588 -0 2.04997 7.70201 0.138006 -4.86044 19.5329 5.22325e-06 -33.2697 -13.7138 -2.3745 -180 -73.7513 180 -16.6865 -0.281494 0.0412999 5.88938 5.44599 -15.717 13.7806 -9.501 -76.7268 -0 -0 56.104 7.20223e-06 -7.58554 3.93657 -0.523805 6.35101e-06 -25.6347 -0.0508883 14.5963 -6.2026 -0 -0 47.2419 2.54997e-05 8.87894 -12.1267 -1.87973 -2.41284e-05 -74.7637 
